<svg xmlns="http://www.w3.org/2000/svg" viewBox="0 0 64 64"><path fill="#008610" fill-rule="evenodd" d="M2.08 31.95h30v30h-30z"/><path fill="#0086fc" fill-rule="evenodd" d="M32.08 31.95h30v30h-30z"/><path fill="#ff5800" fill-rule="evenodd" d="M17.08 1.95h30v30h-30z"/><path fill="#fff" d="M22.75 26.51V7.42h5.77l3.46 13.03 3.43-13.03h5.78v19.1H37.6V11.48L33.8 26.5h-3.7L26.33 11.5V26.5z" aria-label="M" font-family="Arial" font-size="26.667" font-weight="700" letter-spacing="0" opacity=".96" text-anchor="middle" word-spacing="0"/><path fill="#fff" d="M22.45 41.61h-6.6v4.58h6.06v3.41h-6.05v7.26h-4.2V38.19h10.79z" aria-label="F" font-family="Segoe UI" font-size="26.667" font-weight="700" letter-spacing="0" text-anchor="middle" word-spacing="0"/><path fill="#fff" d="M51.77 50.05l3.74 1.18q-.86 3.13-2.87 4.65-1.99 1.51-5.06 1.51-3.8 0-6.25-2.59-2.45-2.6-2.45-7.11 0-4.77 2.46-7.4 2.46-2.64 6.47-2.64 3.5 0 5.7 2.07 1.3 1.23 1.95 3.52l-3.82.9q-.34-1.48-1.42-2.34-1.07-.85-2.6-.85-2.12 0-3.45 1.52-1.32 1.52-1.32 4.93 0 3.62 1.3 5.16t3.39 1.54q1.54 0 2.64-.98 1.11-.98 1.6-3.07z" aria-label="C" font-family="Arial" font-size="26.667" font-weight="700" letter-spacing="0" text-anchor="middle" word-spacing="0"/></svg>