<svg xmlns="http://www.w3.org/2000/svg" viewBox="0 0 64 64"><circle cx="32" cy="32" r="31" fill="#721481" transform="rotate(-45 32.002 31.994)"/><path fill="#7e1b96" d="M53.92 10.08a31 31 0 10 43.84 NaN NaNlNaN NaNa31 31 0 143.84 0 NaN NaNz"/><g fill="#fff"><path d="M17.75 40H15.2v-2.5h-.08q-1.67 2.88-4.92 2.88-2.4 0-3.75-1.27-1.34-1.26-1.34-3.35 0-4.48 5.3-5.22l4.8-.67q0-4.08-3.3-4.08-2.9 0-5.23 1.97v-2.63q2.36-1.5 5.44-1.5 5.65 0 5.65 5.97zm-2.56-8.1l-3.87.54q-1.78.25-2.7.9-.9.6-.9 2.22 0 1.17.83 1.92.85.74 2.24.74 1.9 0 3.14-1.33 1.25-1.35 1.25-3.4z"/><path d="M21.64 39.42v-2.75q2.1 1.55 4.6 1.55 3.38 0 3.38-2.25 0-.64-.3-1.08-.27-.46-.77-.8-.5-.35-1.16-.62-.67-.28-1.43-.57-1.06-.42-1.88-.84-.8-.44-1.35-.97-.53-.55-.8-1.24-.28-.7-.28-1.6 0-1.14.52-2 .5-.87 1.36-1.45.86-.58 1.96-.88 1.1-.3 2.28-.3 2.07 0 3.72.72v2.6q-1.77-1.16-4.07-1.16-.72 0-1.3.17-.57.16-1 .46-.4.3-.63.73-.22.4-.22.9 0 .63.22 1.05.23.42.67.75.42.33 1.05.6.62.26 1.42.57 1.06.4 1.9.84.85.43 1.45.97t.9 1.25q.33.7.33 1.67 0 1.2-.53 2.06-.52.88-1.4 1.45-.87.58-2 .86-1.15.27-2.4.27-2.47 0-4.28-.95z"/><path d="M58.9 40h-2.57v-9.2q0-2.64-.83-3.83-.8-1.2-2.75-1.2-1.64 0-2.8 1.5-1.14 1.5-1.14 3.6V40h-2.55v-9.5q0-4.72-3.64-4.72-1.68 0-2.77 1.42-1.1 1.4-1.1 3.68V40h-2.56V24h2.56v2.53h.07q1.7-2.9 4.97-2.9 1.64 0 2.85.92 1.22.9 1.68 2.4 1.78-3.32 5.3-3.32 5.3 0 5.3 6.5z"/></g></svg>