<?xml version="1.0" encoding="UTF-8" standalone="no"?>
<!DOCTYPE svg PUBLIC "-//W3C//DTD SVG 1.1//EN" "http://www.w3.org/Graphics/SVG/1.1/DTD/svg11.dtd">
<!-- Generated by Microsoft Visio, SVG Export iterator-hiearchy.svg Page-1 -->
<svg xmlns="http://www.w3.org/2000/svg" xmlns:xlink="http://www.w3.org/1999/xlink" xmlns:ev="http://www.w3.org/2001/xml-events"
		xmlns:v="http://schemas.microsoft.com/visio/2003/SVGExtensions/" width="11in" height="16.5in" viewBox="0 0 792 1188"
		xml:space="preserve" color-interpolation-filters="sRGB" class="st5" style="background-color: white">
	<v:documentProperties v:langID="1033" v:viewMarkup="false">
		<v:userDefs>
			<v:ud v:nameU="msvNoAutoConnect" v:val="VT0(1):26"/>
			<v:ud v:nameU="msvWarnOnPersonalInfo" v:val="VT0(0):5"/>
		</v:userDefs>
	</v:documentProperties>

	<style type="text/css">
	<![CDATA[
		.st1 {fill:url(#grad0-4);stroke:#ffffff;stroke-linecap:round;stroke-linejoin:round;stroke-width:1.5}
		.st2 {fill:#ffffff;font-family:Calibri;font-size:1.16666em}
		.st3 {fill:#ffffff}
		.st4 {stroke:#146093;stroke-linecap:round;stroke-linejoin:round;stroke-width:1}
		.st5 {fill:none;fill-rule:evenodd;font-size:12px;overflow:visible;stroke-linecap:square;stroke-miterlimit:3}
	]]>
	</style>

	<defs id="Patterns_And_Gradients">
		<linearGradient id="grad0-4" x1="0" y1="0" x2="1" y2="0" gradientTransform="rotate(90 0.5 0.5)">
			<stop offset="0.1" stop-color="#2095e2" stop-opacity="1"/>
			<stop offset="1" stop-color="#146093" stop-opacity="1"/>
		</linearGradient>
	</defs>
	<g v:mID="0" v:index="1" v:groupContext="foregroundPage">
		<v:userDefs>
			<v:ud v:nameU="msvThemeOrder" v:val="VT0(0):26"/>
		</v:userDefs>
		<title>Page-1</title>
		<v:pageProperties v:drawingScale="1" v:pageScale="1" v:drawingUnits="19" v:shadowOffsetX="9" v:shadowOffsetY="-9"/>
		<v:layer v:name="Connector" v:index="0"/>
		<g id="shape1-1" v:mID="1" v:groupContext="shape" transform="translate(108,-1108.8)">
			<title>Rectangle.1</title>
			<desc>input_or_output_iterator</desc>
			<v:userDefs>
				<v:ud v:nameU="visVersion" v:val="VT0(15):26"/>
			</v:userDefs>
			<v:textBlock v:margins="rect(4,4,4,4)"/>
			<v:textRect cx="86.4" cy="1152" width="172.8" height="72"/>
			<rect x="0" y="1116" width="172.8" height="72" class="st1"/>
			<text x="13.71" y="1156.2" class="st2" v:langID="1033"><v:paragraph v:horizAlign="1"/><v:tabList/>input_or_output_iterator</text>		</g>
		<g id="shape3-6" v:mID="3" v:groupContext="shape" transform="translate(7.6248,-1000.8)">
			<title>Rectangle.3</title>
			<desc>input_iterator</desc>
			<v:userDefs>
				<v:ud v:nameU="visVersion" v:val="VT0(15):26"/>
			</v:userDefs>
			<v:textBlock v:margins="rect(4,4,4,4)"/>
			<v:textRect cx="86.4" cy="1152" width="172.8" height="72"/>
			<rect x="0" y="1116" width="172.8" height="72" class="st1"/>
			<text x="46.23" y="1156.2" class="st2" v:langID="1033"><v:paragraph v:horizAlign="1"/><v:tabList/>input_iterator</text>		</g>
		<g id="shape4-10" v:mID="4" v:groupContext="shape" transform="translate(194.4,-1000.8)">
			<title>Rectangle.4</title>
			<desc>output_iterator</desc>
			<v:userDefs>
				<v:ud v:nameU="visVersion" v:val="VT0(15):26"/>
			</v:userDefs>
			<v:textBlock v:margins="rect(4,4,4,4)"/>
			<v:textRect cx="86.4" cy="1152" width="172.8" height="72"/>
			<rect x="0" y="1116" width="172.8" height="72" class="st1"/>
			<text x="41.8" y="1156.2" class="st2" v:langID="1033"><v:paragraph v:horizAlign="1"/><v:tabList/>output_iterator</text>		</g>
		<g id="shape5-14" v:mID="5" v:groupContext="shape" transform="translate(108,-892.8)">
			<title>Rectangle.5</title>
			<desc>forward_iterator</desc>
			<v:userDefs>
				<v:ud v:nameU="visVersion" v:val="VT0(15):26"/>
			</v:userDefs>
			<v:textBlock v:margins="rect(4,4,4,4)"/>
			<v:textRect cx="86.4" cy="1152" width="172.8" height="72"/>
			<rect x="0" y="1116" width="172.8" height="72" class="st1"/>
			<text x="38.47" y="1156.2" class="st2" v:langID="1033"><v:paragraph v:horizAlign="1"/><v:tabList/>forward_iterator</text>		</g>
		<g id="shape6-18" v:mID="6" v:groupContext="shape" transform="translate(108,-568.8)">
			<title>Rectangle.6</title>
			<desc>contiguous_iterator</desc>
			<v:userDefs>
				<v:ud v:nameU="visVersion" v:val="VT0(15):26"/>
			</v:userDefs>
			<v:textBlock v:margins="rect(4,4,4,4)"/>
			<v:textRect cx="86.4" cy="1152" width="172.8" height="72"/>
			<rect x="0" y="1116" width="172.8" height="72" class="st1"/>
			<text x="29.85" y="1156.2" class="st2" v:langID="1033"><v:paragraph v:horizAlign="1"/><v:tabList/>contiguous_iterator</text>		</g>
		<g id="shape7-22" v:mID="7" v:groupContext="shape" transform="translate(108,-676.8)">
			<title>Rectangle.7</title>
			<desc>random_access_iterator</desc>
			<v:userDefs>
				<v:ud v:nameU="visVersion" v:val="VT0(15):26"/>
			</v:userDefs>
			<v:textBlock v:margins="rect(4,4,4,4)"/>
			<v:textRect cx="86.4" cy="1152" width="172.8" height="72"/>
			<rect x="0" y="1116" width="172.8" height="72" class="st1"/>
			<text x="17.06" y="1156.2" class="st2" v:langID="1033"><v:paragraph v:horizAlign="1"/><v:tabList/>random_access_iterator</text>		</g>
		<g id="shape8-26" v:mID="8" v:groupContext="shape" transform="translate(108,-784.8)">
			<title>Rectangle.8</title>
			<desc>bidirectional_iterator</desc>
			<v:userDefs>
				<v:ud v:nameU="visVersion" v:val="VT0(15):26"/>
			</v:userDefs>
			<v:textBlock v:margins="rect(4,4,4,4)"/>
			<v:textRect cx="86.4" cy="1152" width="172.8" height="72"/>
			<rect x="0" y="1116" width="172.8" height="72" class="st1"/>
			<text x="25.48" y="1156.2" class="st2" v:langID="1033"><v:paragraph v:horizAlign="1"/><v:tabList/>bidirectional_iterator</text>		</g>
		<g id="shape17-30" v:mID="17" v:groupContext="shape" transform="translate(-993.6,547.2) rotate(-90)">
			<title>Line Arrow.17</title>
			<v:userDefs>
				<v:ud v:nameU="Scale" v:val="VT0(1):26"/>
				<v:ud v:nameU="AntiScale" v:val="VT0(1):26"/>
				<v:ud v:nameU="visVersion" v:val="VT0(17):26"/>
			</v:userDefs>
			<path d="M29.61 1184.8 L29.61 1191.2 L36 1188 L29.61 1184.8 Z" class="st3"/>
			<path d="M29.61 1184.8 L29.61 1191.2 L36 1188 L29.61 1184.8" class="st4"/>
			<path d="M0 1188 L29.61 1188" class="st4"/>
		</g>
		<g id="shape18-34" v:mID="18" v:groupContext="shape" transform="translate(-993.6,439.2) rotate(-90)">
			<title>Line Arrow.18</title>
			<v:userDefs>
				<v:ud v:nameU="Scale" v:val="VT0(1):26"/>
				<v:ud v:nameU="AntiScale" v:val="VT0(1):26"/>
				<v:ud v:nameU="visVersion" v:val="VT0(17):26"/>
			</v:userDefs>
			<path d="M29.61 1184.8 L29.61 1191.2 L36 1188 L29.61 1184.8 Z" class="st3"/>
			<path d="M29.61 1184.8 L29.61 1191.2 L36 1188 L29.61 1184.8" class="st4"/>
			<path d="M0 1188 L29.61 1188" class="st4"/>
		</g>
		<g id="shape20-38" v:mID="20" v:groupContext="shape" transform="translate(-956.88,583.92) rotate(-90)">
			<title>Line Arrow.20</title>
			<v:userDefs>
				<v:ud v:nameU="Scale" v:val="VT0(1):26"/>
				<v:ud v:nameU="AntiScale" v:val="VT0(1):26"/>
				<v:ud v:nameU="visVersion" v:val="VT0(17):26"/>
			</v:userDefs>
			<path d="M0 1188 L36 1188" class="st4"/>
		</g>
		<g id="shape21-41" v:mID="21" v:groupContext="shape" transform="translate(-993.6,331.2) rotate(-90)">
			<title>Line Arrow.21</title>
			<v:userDefs>
				<v:ud v:nameU="Scale" v:val="VT0(1):26"/>
				<v:ud v:nameU="AntiScale" v:val="VT0(1):26"/>
				<v:ud v:nameU="visVersion" v:val="VT0(17):26"/>
			</v:userDefs>
			<path d="M29.61 1184.8 L29.61 1191.2 L36 1188 L29.61 1184.8 Z" class="st3"/>
			<path d="M29.61 1184.8 L29.61 1191.2 L36 1188 L29.61 1184.8" class="st4"/>
			<path d="M0 1188 L29.61 1188" class="st4"/>
		</g>
		<g id="shape22-45" v:mID="22" v:groupContext="shape" transform="translate(-262.523,-873.415) rotate(-22.6199)">
			<title>Line Arrow.22</title>
			<v:userDefs>
				<v:ud v:nameU="Scale" v:val="VT0(1):26"/>
				<v:ud v:nameU="AntiScale" v:val="VT0(1):26"/>
				<v:ud v:nameU="visVersion" v:val="VT0(17):26"/>
			</v:userDefs>
			<path d="M87.21 1184.8 L87.21 1191.2 L93.6 1188 L87.21 1184.8 Z" class="st3"/>
			<path d="M87.21 1184.8 L87.21 1191.2 L93.6 1188 L87.21 1184.8" class="st4"/>
			<path d="M0 1188 L87.21 1188" class="st4"/>
		</g>
		<g id="shape23-49" v:mID="23" v:groupContext="shape" transform="translate(-206.666,1341.45) rotate(-160.269)">
			<title>Line Arrow.23</title>
			<v:userDefs>
				<v:ud v:nameU="Scale" v:val="VT0(1):26"/>
				<v:ud v:nameU="AntiScale" v:val="VT0(1):26"/>
				<v:ud v:nameU="visVersion" v:val="VT0(17):26"/>
			</v:userDefs>
			<path d="M100.24 1184.8 L100.24 1191.2 L106.64 1188 L100.24 1184.8 Z" class="st3"/>
			<path d="M100.24 1184.8 L100.24 1191.2 L106.64 1188 L100.24 1184.8" class="st4"/>
			<path d="M0 1188 L100.24 1188" class="st4"/>
		</g>
		<g id="shape24-53" v:mID="24" v:groupContext="shape" transform="translate(-176.123,1211.82) rotate(-157.38)">
			<title>Line Arrow.24</title>
			<v:userDefs>
				<v:ud v:nameU="Scale" v:val="VT0(1):26"/>
				<v:ud v:nameU="AntiScale" v:val="VT0(1):26"/>
				<v:ud v:nameU="visVersion" v:val="VT0(17):26"/>
			</v:userDefs>
			<path d="M87.21 1184.8 L87.21 1191.2 L93.6 1188 L87.21 1184.8 Z" class="st3"/>
			<path d="M87.21 1184.8 L87.21 1191.2 L93.6 1188 L87.21 1184.8" class="st4"/>
			<path d="M0 1188 L87.21 1188" class="st4"/>
		</g>
		<g id="shape25-57" v:mID="25" v:groupContext="shape" transform="translate(-307.041,-1003.05) rotate(-19.7306)">
			<title>Line Arrow.25</title>
			<v:userDefs>
				<v:ud v:nameU="Scale" v:val="VT0(1):26"/>
				<v:ud v:nameU="AntiScale" v:val="VT0(1):26"/>
				<v:ud v:nameU="visVersion" v:val="VT0(17):26"/>
			</v:userDefs>
			<path d="M100.24 1184.8 L100.24 1191.2 L106.64 1188 L100.24 1184.8 Z" class="st3"/>
			<path d="M100.24 1184.8 L100.24 1191.2 L106.64 1188 L100.24 1184.8" class="st4"/>
			<path d="M0 1188 L100.24 1188" class="st4"/>
		</g>
	</g>
</svg>
