<?xml version="1.0" encoding="UTF-8" standalone="no"?>
<!DOCTYPE svg PUBLIC "-//W3C//DTD SVG 1.1//EN" "http://www.w3.org/Graphics/SVG/1.1/DTD/svg11.dtd">
<!-- Generated by Microsoft Visio, SVG Export ranges-iterator-hiearchy.svg Page-1 -->
<svg xmlns="http://www.w3.org/2000/svg" xmlns:xlink="http://www.w3.org/1999/xlink" xmlns:ev="http://www.w3.org/2001/xml-events"
		xmlns:v="http://schemas.microsoft.com/visio/2003/SVGExtensions/" width="5.25in" height="7.25in" viewBox="0 0 378 522"
		xml:space="preserve" color-interpolation-filters="sRGB" class="st5" style="background-color: white">
	<v:documentProperties v:langID="1033" v:viewMarkup="false">
		<v:userDefs>
			<v:ud v:nameU="msvNoAutoConnect" v:val="VT0(1):26"/>
			<v:ud v:nameU="msvWarnOnPersonalInfo" v:val="VT0(0):5"/>
		</v:userDefs>
	</v:documentProperties>

	<style type="text/css">
	<![CDATA[
		.st1 {fill:url(#grad0-4);stroke:#ffffff;stroke-linecap:round;stroke-linejoin:round;stroke-width:1.5}
		.st2 {fill:#ffffff;font-family:Calibri;font-size:1.16666em}
		.st3 {fill:#ffffff}
		.st4 {stroke:#146093;stroke-linecap:round;stroke-linejoin:round;stroke-width:1}
		.st5 {fill:none;fill-rule:evenodd;font-size:12px;overflow:visible;stroke-linecap:square;stroke-miterlimit:3}
	]]>
	</style>

	<defs id="Patterns_And_Gradients">
		<linearGradient id="grad0-4" x1="0" y1="0" x2="1" y2="0" gradientTransform="rotate(90 0.5 0.5)">
			<stop offset="0.1" stop-color="#2095e2" stop-opacity="1"/>
			<stop offset="1" stop-color="#146093" stop-opacity="1"/>
		</linearGradient>
	</defs>
	<g v:mID="0" v:index="1" v:groupContext="foregroundPage">
		<v:userDefs>
			<v:ud v:nameU="msvThemeOrder" v:val="VT0(0):26"/>
		</v:userDefs>
		<title>Page-1</title>
		<v:pageProperties v:drawingScale="1" v:pageScale="1" v:drawingUnits="19" v:shadowOffsetX="9" v:shadowOffsetY="-9"/>
		<v:layer v:name="Connector" v:index="0"/>
		<g id="shape3-1" v:mID="3" v:groupContext="shape" transform="translate(9,-445.5)">
			<title>Rectangle.3</title>
			<desc>input_range</desc>
			<v:userDefs>
				<v:ud v:nameU="visVersion" v:val="VT0(15):26"/>
			</v:userDefs>
			<v:textBlock v:margins="rect(4,4,4,4)"/>
			<v:textRect cx="86.4" cy="486" width="172.8" height="72"/>
			<rect x="0" y="450" width="172.8" height="72" class="st1"/>
			<text x="51.68" y="490.2" class="st2" v:langID="1033"><v:paragraph v:horizAlign="1"/><v:tabList/>input_range</text>		</g>
		<g id="shape4-6" v:mID="4" v:groupContext="shape" transform="translate(195.775,-445.5)">
			<title>Rectangle.4</title>
			<desc>output_range</desc>
			<v:userDefs>
				<v:ud v:nameU="visVersion" v:val="VT0(15):26"/>
			</v:userDefs>
			<v:textBlock v:margins="rect(4,4,4,4)"/>
			<v:textRect cx="86.4" cy="486" width="172.8" height="72"/>
			<rect x="0" y="450" width="172.8" height="72" class="st1"/>
			<text x="47.25" y="490.2" class="st2" v:langID="1033"><v:paragraph v:horizAlign="1"/><v:tabList/>output_range</text>		</g>
		<g id="shape5-10" v:mID="5" v:groupContext="shape" transform="translate(103.5,-333)">
			<title>Rectangle.5</title>
			<desc>forward_range</desc>
			<v:userDefs>
				<v:ud v:nameU="visVersion" v:val="VT0(15):26"/>
			</v:userDefs>
			<v:textBlock v:margins="rect(4,4,4,4)"/>
			<v:textRect cx="86.4" cy="486" width="172.8" height="72"/>
			<rect x="0" y="450" width="172.8" height="72" class="st1"/>
			<text x="43.92" y="490.2" class="st2" v:langID="1033"><v:paragraph v:horizAlign="1"/><v:tabList/>forward_range</text>		</g>
		<g id="shape6-14" v:mID="6" v:groupContext="shape" transform="translate(103.5,-9)">
			<title>Rectangle.6</title>
			<desc>contiguous_range</desc>
			<v:userDefs>
				<v:ud v:nameU="visVersion" v:val="VT0(15):26"/>
			</v:userDefs>
			<v:textBlock v:margins="rect(4,4,4,4)"/>
			<v:textRect cx="86.4" cy="486" width="172.8" height="72"/>
			<rect x="0" y="450" width="172.8" height="72" class="st1"/>
			<text x="35.3" y="490.2" class="st2" v:langID="1033"><v:paragraph v:horizAlign="1"/><v:tabList/>contiguous_range</text>		</g>
		<g id="shape7-18" v:mID="7" v:groupContext="shape" transform="translate(103.5,-117)">
			<title>Rectangle.7</title>
			<desc>random_access_range</desc>
			<v:userDefs>
				<v:ud v:nameU="visVersion" v:val="VT0(15):26"/>
			</v:userDefs>
			<v:textBlock v:margins="rect(4,4,4,4)"/>
			<v:textRect cx="86.4" cy="486" width="172.8" height="72"/>
			<rect x="0" y="450" width="172.8" height="72" class="st1"/>
			<text x="22.51" y="490.2" class="st2" v:langID="1033"><v:paragraph v:horizAlign="1"/><v:tabList/>random_access_range</text>		</g>
		<g id="shape8-22" v:mID="8" v:groupContext="shape" transform="translate(103.5,-225)">
			<title>Rectangle.8</title>
			<desc>bidirectional_range</desc>
			<v:userDefs>
				<v:ud v:nameU="visVersion" v:val="VT0(15):26"/>
			</v:userDefs>
			<v:textBlock v:margins="rect(4,4,4,4)"/>
			<v:textRect cx="86.4" cy="486" width="172.8" height="72"/>
			<rect x="0" y="450" width="172.8" height="72" class="st1"/>
			<text x="30.93" y="490.2" class="st2" v:langID="1033"><v:paragraph v:horizAlign="1"/><v:tabList/>bidirectional_range</text>		</g>
		<g id="shape17-26" v:mID="17" v:groupContext="shape" transform="translate(-332.1,441) rotate(-90)">
			<title>Line Arrow.17</title>
			<v:userDefs>
				<v:ud v:nameU="Scale" v:val="VT0(1):26"/>
				<v:ud v:nameU="AntiScale" v:val="VT0(1):26"/>
				<v:ud v:nameU="visVersion" v:val="VT0(17):26"/>
			</v:userDefs>
			<path d="M29.61 518.8 L29.61 525.2 L36 522 L29.61 518.8 Z" class="st3"/>
			<path d="M29.61 518.8 L29.61 525.2 L36 522 L29.61 518.8" class="st4"/>
			<path d="M0 522 L29.61 522" class="st4"/>
		</g>
		<g id="shape18-30" v:mID="18" v:groupContext="shape" transform="translate(-332.1,333) rotate(-90)">
			<title>Line Arrow.18</title>
			<v:userDefs>
				<v:ud v:nameU="Scale" v:val="VT0(1):26"/>
				<v:ud v:nameU="AntiScale" v:val="VT0(1):26"/>
				<v:ud v:nameU="visVersion" v:val="VT0(17):26"/>
			</v:userDefs>
			<path d="M29.61 518.8 L29.61 525.2 L36 522 L29.61 518.8 Z" class="st3"/>
			<path d="M29.61 518.8 L29.61 525.2 L36 522 L29.61 518.8" class="st4"/>
			<path d="M0 522 L29.61 522" class="st4"/>
		</g>
		<g id="shape21-34" v:mID="21" v:groupContext="shape" transform="translate(-332.1,225) rotate(-90)">
			<title>Line Arrow.21</title>
			<v:userDefs>
				<v:ud v:nameU="Scale" v:val="VT0(1):26"/>
				<v:ud v:nameU="AntiScale" v:val="VT0(1):26"/>
				<v:ud v:nameU="visVersion" v:val="VT0(17):26"/>
			</v:userDefs>
			<path d="M29.61 518.8 L29.61 525.2 L36 522 L29.61 518.8 Z" class="st3"/>
			<path d="M29.61 518.8 L29.61 525.2 L36 522 L29.61 518.8" class="st4"/>
			<path d="M0 522 L29.61 522" class="st4"/>
		</g>
		<g id="shape22-38" v:mID="22" v:groupContext="shape" transform="translate(-19.8908,-360.987) rotate(-23.6969)">
			<title>Line Arrow.22</title>
			<v:userDefs>
				<v:ud v:nameU="Scale" v:val="VT0(1):26"/>
				<v:ud v:nameU="AntiScale" v:val="VT0(1):26"/>
				<v:ud v:nameU="visVersion" v:val="VT0(17):26"/>
			</v:userDefs>
			<path d="M94.38 518.8 L94.38 525.2 L100.77 522 L94.38 518.8 Z" class="st3"/>
			<path d="M94.38 518.8 L94.38 525.2 L100.77 522 L94.38 518.8" class="st4"/>
			<path d="M0 522 L94.38 522" class="st4"/>
		</g>
		<g id="shape23-42" v:mID="23" v:groupContext="shape" transform="translate(-15.7259,596.794) rotate(-156.801)">
			<title>Line Arrow.23</title>
			<v:userDefs>
				<v:ud v:nameU="Scale" v:val="VT0(1):26"/>
				<v:ud v:nameU="AntiScale" v:val="VT0(1):26"/>
				<v:ud v:nameU="visVersion" v:val="VT0(17):26"/>
			</v:userDefs>
			<path d="M96.42 518.8 L96.42 525.2 L102.81 522 L96.42 518.8 Z" class="st3"/>
			<path d="M96.42 518.8 L96.42 525.2 L102.81 522 L96.42 518.8" class="st4"/>
			<path d="M0 522 L96.42 522" class="st4"/>
		</g>
	</g>
</svg>
